<svg width="17" height="17" viewBox="0 0 17 17" fill="none" xmlns="http://www.w3.org/2000/svg">
<path d="M13.4937 3.47791C12.8443 2.82207 12.0707 2.30206 11.2182 1.94817C10.3657 1.59428 9.45135 1.41361 8.52833 1.41666C4.66083 1.41666 1.50875 4.56875 1.50875 8.43625C1.50875 9.67583 1.83458 10.88 2.44375 11.9425L1.45208 15.5833L5.17083 14.6058C6.19792 15.1654 7.3525 15.4629 8.52833 15.4629C12.3958 15.4629 15.5479 12.3108 15.5479 8.44333C15.5479 6.56625 14.8183 4.8025 13.4937 3.47791ZM8.52833 14.2729C7.48 14.2729 6.45292 13.9896 5.55333 13.4583L5.34083 13.3308L3.13083 13.9117L3.71875 11.7583L3.57708 11.5387C2.99451 10.6087 2.68524 9.53365 2.68458 8.43625C2.68458 5.22041 5.30542 2.59958 8.52125 2.59958C10.0796 2.59958 11.5458 3.20875 12.6438 4.31375C13.1875 4.85482 13.6184 5.49847 13.9114 6.20736C14.2044 6.91625 14.3538 7.67627 14.3508 8.44333C14.365 11.6592 11.7442 14.2729 8.52833 14.2729ZM11.73 9.90958C11.5529 9.82458 10.6887 9.39958 10.5329 9.33583C10.37 9.27917 10.2567 9.25083 10.1363 9.42083C10.0158 9.59792 9.68292 9.99458 9.58375 10.1079C9.48458 10.2283 9.37833 10.2425 9.20125 10.1504C9.02417 10.0654 8.4575 9.87417 7.79167 9.27917C7.2675 8.81167 6.92042 8.23791 6.81417 8.06083C6.715 7.88375 6.8 7.79166 6.89208 7.69958C6.97 7.62166 7.06917 7.49416 7.15417 7.395C7.23917 7.29583 7.27458 7.21791 7.33125 7.10458C7.38792 6.98416 7.35958 6.885 7.31708 6.8C7.27458 6.715 6.92042 5.85083 6.77875 5.49666C6.63708 5.15666 6.48833 5.19916 6.38208 5.19208H6.04208C5.92167 5.19208 5.7375 5.23458 5.57458 5.41166C5.41875 5.58875 4.96542 6.01375 4.96542 6.87791C4.96542 7.74208 5.59583 8.57792 5.68083 8.69125C5.76583 8.81167 6.92042 10.5825 8.67708 11.3404C9.095 11.5246 9.42083 11.6308 9.67583 11.7087C10.0937 11.8433 10.4763 11.8221 10.7808 11.7796C11.1208 11.73 11.8221 11.3546 11.9637 10.9437C12.1125 10.5329 12.1125 10.1858 12.0629 10.1079C12.0133 10.03 11.9071 9.99458 11.73 9.90958Z" fill="white"/>
</svg>
